<svg xmlns="http://www.w3.org/2000/svg" width="82" height="82" viewBox="0 0 82 82">
  <g id="Group_1" data-name="Group 1" transform="translate(-1689 -793)">
    <circle id="bg" cx="41" cy="41" r="41" transform="translate(1689 793)" fill="#ffc601"/>
    <path id="ico_arrow" d="M1729.332,836.408l-3.565,3.211a1.36,1.36,0,0,0,0,1.979,1.5,1.5,0,0,0,2.058,0l5.534-5.1a2.043,2.043,0,0,0,0-2.969l-5.534-5.1a1.5,1.5,0,0,0-2.061,0,1.362,1.362,0,0,0,0,1.979l3.565,3.209h-16.894a1.4,1.4,0,1,0,0,2.8Z" transform="translate(7 -1)" fill="#fff"/>
  </g>
</svg>
